<svg enable-background="new 0 0 100 100" height="512" viewBox="0 0 100 100" width="512" xmlns="http://www.w3.org/2000/svg"><path d="m76.8433838 77.0050659c-2.039978 1.8999634-4.289978 3.1999512-6.8900146 3.5699463-7.1799927 1.0100098-12.9699707-2.1900024-15.6699829-9.6799927-.1799927-.5-.2999878-1.0100098-.4500122-1.5199585-.1099854.0099487-.2099609.0199585-.3199463.0299683 0 4.75 0 9.4899902.0099487 14.2299805 0 1.4900513-.5299683 2.6900024-1.8699951 3.4100342-2.4099731 1.2999878-5.0599976-.3200073-5.1099854-3.2000122-.0700073-4.2999878-.0299683-8.6099854-.039978-12.9199829 0-.5100098 0-1.0200195-.3000488-1.5700073-.1299438.4000244-.2399902.7999878-.3899536 1.1900024-1.4700317 3.8900146-3.5599976 7.0999756-7.6300049 8.9500122-4.2000122 1.9099731-8.210022 1.6199951-12.0800171-.2700195-2.3599854-1.1500244-4.2600098-3.0499878-5.6300049-5.5200195-1.1799927-2.1199951-1.7099609-4.1999512-1.6199951-6.5599976.0900269-2.1799927 1.3300171-3.6399498 3.3200073-3.7199669 1.960022-.0700073 3.5100098 1.2799644 3.6599731 3.4299889.1800537 2.3499756 1.0500488 4.25 3.0100098 5.5999756 2.4299927 1.6700439 5.5700073 1.460022 7.6900024-.5199585-.25-.3400269-.6400146-.6500244-.7399902-1.0400391-.3699951-1.4199829-1.0100098-1.8099976-2.4299927-1.0899658-1.2399902.6199951-2.3900146-.1700439-2.4199829-1.5900269-.0300293-1.2199707-.3000488-1.8099976-1.7200317-1.5499878-1.5899658.2799683-2.5100098-.9299927-1.9299927-2.5.4500122-1.2000084.1500244-1.6799889-1.0599976-1.9500084-1.3099976-.2999878-2.0100098-1.6699829-1.210022-2.5599976.960022-1.0499878.8900146-2.1499634.9400024-3.3699951.0599976-1.8599854 1.460022-3.2299805 3.2600098-3.3300171 1.9299927-.1099854 3.4299927 1.0700073 3.7600098 2.9700317.1300049.7299805.1699829 1.4699707.3300171 2.1799927.6099854 2.5999756 2.7399902 4.4799805 5.4099731 4.6699829h.0200195c.1400146.0100098.2799683.0200195.4299927.0200195 0-.1400146 0-.289978-.0100098-.4299927v-.0100098c-.0100098-1.8900146-.0999756-3.7800293.039978-5.6600342.1700439-2.289978-.4899902-3.8399658-2.3299561-5.4799805-9.960022-8.8699951-9.8300171-24.8300171.0599976-33.7700195 9.0499878-8.1899414 23.3300171-5.9299927 29.9599609 4.7400513 5.7300415 9.2199707 4.3900146 21.2799683-3.5699463 28.6199951-2.0700073 1.9099731-2.7600098 3.7099609-2.5500488 6.2999878.1500244 1.8800049.0300293 3.7799683.0300293 5.6599731 2.9699707.1000366 5.539978-2.2299805 5.9799805-5.2099609.0900269-.5800171.1099854-1.1700439.2300415-1.7399902.4099731-1.9000244 1.9299927-3 3.8599854-2.8600464 1.6799927.1300049 3.0599976 1.5100098 3.2000122 3.2900391.0999756 1.2199707-.1900024 2.4099731.9899902 3.4599609.7999878.710022.0799561 2.2200317-1.1300049 2.460022-1.3300171.2700195-1.75.6799927-1.1400146 2.0700035.6400146 1.4400024-.4299927 2.7099609-2.0200195 2.4199829-1.3200073-.25-1.6300049.2399902-1.6399536 1.4500122-.0100098 1.5700073-1.1800537 2.3200073-2.5900269 1.6300049-1.1799927-.5800171-1.7999878-.3900146-2.1599731.8999634-.1400146.4800415-.5700073.8900146-.8699951 1.3300171 1.5299683 2.0200195 5.5199585 2.1699829 7.9399414.2900391 1.7800293-1.3900146 2.5600586-3.2400513 2.7400513-5.460022.2099609-2.4899902 2.2699585-3.9100304 4.5499878-3.2000084 1.4099731.4399986 2.2399902 1.4600182 2.3599854 2.8900108.3599853 4.209961-1.1199952 7.5999757-4.2600098 10.5200196z" fill="#27a2db"/><path d="m39.8834229 56.5450478c-.2400513 2.0599976-.2000122 4.1300049-.2700195 6.25l-.0200195.3999634-.4199829.0400391c-2.0300293.2000122-4.2299805-.7200317-5.5300293-2.4500122-.6599731-.8499756-1.0999756-1.8699951-1.3099976-2.9099731-.1999512-1.0300293-.2299805-1.9400024-.5299683-2.5300293-.3099976-.6300049-.8300171-1.0700073-1.4799805-1.2999878-.6600342-.210022-1.4500122-.2000122-2.0900269.0599976-.6500244.25-1.2000122.7999878-1.4500122 1.5200195-.2699585.6499634-.1499634 1.7099609-.4599609 2.75-.1500244.5299683-.4100342 1.039978-.7700195 1.4499512-.210022.2400513-.25.2800293-.3200073.4300537-.0599976.1299438-.0700073.2799683-.0499878.4299927.0599976.3099976.2799683.6300049.5899658.8299561.1500244.1000366.3200073.1900024.5.2300415.2000122.0599976.4900513.1300049.7400513.2399902.25.1199951.5499878.2999878.7399902.6300049.1900024.3299561.1900024.6900024.1399536.9699707-.039978.2800293-.1399536.5400352-.2199707.760006-.0700073.1900024-.1300049.3900146-.1400146.5800171-.1099854.789978.4500122 1.4500122 1.2700195 1.3999634.3599854.0100098.9299927-.1900024 1.5200195-.0199585.3099976.0799561.6199951.3499756.75.6300049.1399536.289978.1699829.5599976.1999512.8200073.0300293.539978.0200195.8899536.210022 1.25.1699829.3399658.4699707.5899658.8300171.6499634.1799927.0300293.3699951.0200195.5599976-.0299683.1799927-.0500488.3499756-.1500244.5999756-.2600098.4500122-.1799927 1.0300293-.4200439 1.6699829-.1300049.6000366.3300171.7800293.9099731.9400024 1.3699951.0400391.1300049.0700073.2399902.0900269.289978.039978.0700073.0900269.1500244.1500244.2300415l.4599609.5299683.0499878.0599976.1500244.1900024-.2000122.2999878c-.6499634 1.0400391-1.8099976 1.7399902-3.039978 1.960022-1.2200317.25-2.5100098.1300049-3.6600342-.3200073-1.1599731-.4500122-2.1499634-1.1900024-2.9299927-2.1199951-.7799683-.9299927-1.2799683-2.0700073-1.5100098-3.2199707-.1199951-.5700073-.1699829-1.1600342-.1999512-1.710022-.0300293-.5200195-.1600342-1.0200195-.3900146-1.460022-.460022-.9099731-1.4100342-1.4999962-2.4299927-1.5599937-1.0200195-.0899658-2.0499878.3200035-2.6199951 1.1099815-.6100464.8000488-.7000122 1.8500366-.6300049 2.9100342.0999756 2.1499634.9099731 4.1400146 2.1099854 5.8800049 1.1900024 1.7399902 2.7199707 3.1799927 4.4899902 4.0999756 1.7900391.9400024 3.8200073 1.5400391 5.7999878 1.6900024 1 .0700073 2 .0800171 3.0400391.0700073 1.0499878 0 2.1399536-.0700073 3.3699951-.039978-4.2000122 1.9099731-8.210022 1.6199951-12.0800171-.2700195-2.3599854-1.1500244-4.2600098-3.0499878-5.6300049-5.5200195-1.1799927-2.1199951-1.7099609-4.1999512-1.6199951-6.5599976.0900269-2.1799927 1.3300171-3.6399498 3.3200073-3.7199669 1.960022-.0700073 3.5100098 1.2799644 3.6599731 3.4299889.1800537 2.3499756 1.0500488 4.25 3.0100098 5.5999756 2.4299927 1.6700439 5.5700073 1.460022 7.6900024-.5199585-.25-.3400269-.6400146-.6500244-.7399902-1.0400391-.3699951-1.4199829-1.0100098-1.8099976-2.4299927-1.0899658-1.2399902.6199951-2.3900146-.1700439-2.4199829-1.5900269-.0300293-1.2199707-.3000488-1.8099976-1.7200317-1.5499878-1.5899658.2799683-2.5100098-.9299927-1.9299927-2.5.4500122-1.2000084.1500244-1.6799889-1.0599976-1.9500084-1.3099976-.2999878-2.0100098-1.6699829-1.210022-2.5599976.960022-1.0499878.8900146-2.1499634.9400024-3.3699951.0610962-1.8940315 1.5117264-3.2799721 3.3592625-3.3342285 1.8598614-.0546188 3.4276562 1.4101295 3.7059231 3.2498665.0967827.6398849.1449318 1.2835808.2848511 1.9043694.6099854 2.5999756 2.7399902 4.4799805 5.4099731 4.6699829h.0200195c.1400146.0100098.2799683.0200195.4299927.0200195 0-.1400146 0-.289978-.0100098-.4299927v-.0100098c-.0100098-1.8900146-.0999756-3.7800293.039978-5.6600342.1700439-2.289978-.4899902-3.8399658-2.3299561-5.4799805-9.960022-8.8699951-9.8300171-24.8300171.0599976-33.7700195-2.1199951 3.8600464-2.7800293 7.3200073-3.6900024 11.0800171-.1000366.4800415-.2200317.9400024-.3300171 1.4100342-.1099854.4599609-.1400146.9499512-.2199707 1.4199829-.0975075.4824104-.1423416.9727135-.1750488 1.4641647-.0735359 1.1048889-.0979042 2.2134285-.0538521 3.3198853.0511131 1.283699.1688843 2.5659256.4688911 3.8259354.6900024 3.8300171 1.5999756 7.4700317 4.3800049 10.3699951.7399902.75 1.5799561 1.6600342 2.0599976 2.7600098.5100099 1.1099851.6199952 2.3400266.5100099 3.450012z" fill="#2d93ba"/><circle cx="41.601" cy="33.013" fill="#fcd462" r="4"/><circle cx="58.401" cy="33.013" fill="#fcd462" r="4"/><g fill="#1c75a1"><circle cx="58.401" cy="33.013" r="1.5"/><circle cx="41.601" cy="33.013" r="1.5"/></g></svg>